<?xml version="1.0" standalone="no"?>
<!DOCTYPE svg PUBLIC "-//W3C//DTD SVG 20010904//EN"
 "http://www.w3.org/TR/2001/REC-SVG-20010904/DTD/svg10.dtd">
<svg version="1.0" xmlns="http://www.w3.org/2000/svg"
 width="1600.000000pt" height="1600.000000pt" viewBox="0 0 1600.000000 1600.000000"
 preserveAspectRatio="xMidYMid meet">
<metadata>
Created by potrace 1.16, written by Peter Selinger 2001-2019
</metadata>
<g transform="translate(0.000000,1600.000000) scale(0.100000,-0.100000)"
fill="#000000" stroke="none">
<path d="M2850 14769 c-449 -27 -938 -264 -1455 -704 -230 -195 -566 -533
-687 -690 -368 -480 -570 -1029 -654 -1785 -25 -225 -30 -838 -10 -1175 68
-1120 119 -1661 222 -2325 174 -1127 472 -2271 872 -3350 170 -457 348 -808
605 -1195 441 -660 1059 -1314 1692 -1790 290 -218 559 -379 701 -421 76 -22
239 -22 359 0 50 9 191 46 315 81 524 149 644 155 1330 61 743 -101 1067 -129
1683 -146 601 -16 1003 19 1442 125 1431 346 2642 1356 3533 2946 207 371 428
866 533 1196 l22 72 111 27 c224 55 418 126 641 234 796 386 1352 1011 1609
1809 120 371 166 760 146 1236 -48 1134 -400 2064 -1011 2674 -425 424 -962
681 -1606 768 -158 21 -706 25 -908 5 -926 -89 -1636 -350 -2255 -828 -142
-110 -400 -364 -508 -502 -233 -294 -406 -626 -501 -962 -62 -221 -84 -381
-84 -620 l0 -185 -351 0 c-527 0 -872 -43 -1270 -157 -405 -116 -808 -320
-1101 -558 -101 -81 -293 -272 -371 -370 -236 -293 -421 -647 -560 -1072 l-38
-117 -96 187 c-325 629 -745 1188 -1242 1655 -517 484 -901 1107 -1248 2027
l-78 205 40 14 c39 13 42 13 147 -39 58 -29 114 -56 123 -61 10 -5 40 -9 67
-9 27 0 86 -8 132 -17 61 -13 132 -17 259 -17 158 0 185 3 275 27 148 39 287
112 358 186 31 33 57 66 57 74 0 8 18 19 43 26 59 18 173 76 229 118 78 57
154 149 202 245 l45 90 73 32 c211 92 325 228 381 455 19 81 24 91 53 104 38
18 104 114 134 195 67 177 64 352 -11 582 -118 363 -281 558 -764 915 -88 65
-226 172 -307 237 -349 282 -545 388 -831 452 -64 15 -161 29 -214 32 -54 2
-111 6 -128 7 -16 2 -82 0 -145 -4z m395 -659 c148 -47 257 -115 540 -339 88
-70 212 -165 275 -211 302 -220 439 -346 499 -460 36 -67 75 -176 85 -237 7
-40 7 -40 -44 -73 -97 -62 -142 -147 -146 -272 -2 -57 -9 -102 -21 -129 l-18
-42 -80 2 c-70 1 -88 -2 -140 -27 -113 -54 -175 -151 -183 -286 -5 -78 -5 -78
-38 -92 -18 -8 -60 -14 -92 -14 -150 0 -260 -75 -318 -217 l-23 -58 -58 -12
c-71 -15 -177 -15 -262 1 l-64 11 -22 68 c-27 86 -68 143 -129 184 -59 40
-103 53 -186 53 -94 0 -169 -38 -244 -123 -56 -63 -63 -67 -197 -123 -163 -66
-213 -96 -281 -166 -95 -98 -144 -235 -135 -378 6 -99 21 -149 129 -440 271
-723 540 -1236 901 -1713 151 -200 258 -320 557 -617 400 -399 587 -621 826
-980 259 -391 449 -769 699 -1397 64 -160 100 -211 186 -258 49 -27 62 -30
149 -30 106 0 147 15 220 81 66 60 87 117 116 319 82 574 218 1012 423 1370
364 633 908 1016 1640 1155 225 43 323 52 640 57 327 6 485 -2 784 -37 179
-22 227 -17 309 27 61 33 103 80 136 152 33 73 33 158 -1 266 -49 153 -64 307
-48 475 25 243 80 436 191 667 465 966 1566 1532 2977 1533 701 0 1207 -189
1609 -601 184 -190 314 -378 439 -634 199 -408 318 -877 365 -1435 16 -194 14
-573 -5 -735 -90 -779 -458 -1342 -1148 -1759 -270 -163 -654 -314 -972 -382
-91 -19 -139 -41 -189 -85 -54 -46 -71 -82 -135 -270 -114 -335 -222 -589
-406 -954 -153 -303 -260 -489 -430 -745 -282 -425 -566 -764 -910 -1087 -720
-675 -1559 -1054 -2510 -1133 -155 -13 -715 -13 -960 0 -391 20 -688 50 -1210
120 -897 121 -956 119 -1642 -55 -182 -47 -346 -85 -363 -85 -95 0 -499 275
-870 594 -237 204 -581 559 -803 831 -328 399 -615 855 -791 1251 -109 247
-349 937 -481 1384 -363 1232 -557 2335 -655 3730 -73 1048 -79 1518 -24 1940
69 537 235 950 525 1310 142 177 505 516 754 705 256 195 528 344 728 400 103
29 149 34 307 31 126 -3 168 -8 225 -26z"/>
</g>
</svg>
